<svg xmlns="http://www.w3.org/2000/svg" xmlns:xlink="http://www.w3.org/1999/xlink" xmlns:inkscape="http://www.inkscape.org/namespaces/inkscape" version="1.1" width="221" height="132" viewBox="0 0 221 132">
<defs>
<path id="font_1_1" d="M.6589966 .23046875C.6759949 .23046875 .69400027 .23046875 .69400027 .25045777 .69400027 .27046205 .6759949 .27046205 .6589966 .27046205H.117996219C.100997928 .27046205 .08299255 .27046205 .08299255 .25045777 .08299255 .23046875 .100997928 .23046875 .117996219 .23046875H.6589966Z"/>
<path id="font_2_2" d="M.2939911 .64004519C.2939911 .66400149 .2939911 .6660156 .2709961 .6660156 .20899964 .60227969 .12098694 .60227969 .08898926 .60227969V.57128909C.10899353 .57128909 .16799927 .57128909 .21998596 .5972748V.07902527C.21998596 .042999269 .21699524 .0309906 .1269989 .0309906H.09498596V0C.12998963 .0029907227 .21699524 .0029907227 .25698854 .0029907227 .29699708 .0029907227 .38398744 .0029907227 .4189911 0V.0309906H.3869934C.29699708 .0309906 .2939911 .041992189 .2939911 .07902527V.64004519Z"/>
<path id="font_2_1" d="M.45999146 .31976319C.45999146 .39982606 .45498658 .47988893 .41999818 .5539398 .37399293 .65000918 .2919922 .6660156 .25 .6660156 .18998719 .6660156 .116989139 .64001467 .07598877 .54693606 .04399109 .47789 .038986207 .39982606 .038986207 .31976319 .038986207 .24472046 .042999269 .15464783 .083999637 .07859802 .1269989-.0024719239 .19999695-.022460938 .24899292-.022460938 .30299378-.022460938 .3789978-.0014648438 .4229889 .09359741 .45498658 .16265869 .45999146 .2407074 .45999146 .31976319M.24899292-.00047302247C.20999146-.00047302247 .15098572 .024551392 .1329956 .12062073 .12199402 .18066406 .12199402 .2727356 .12199402 .3317871 .12199402 .39582826 .12199402 .46188355 .12998963 .5159149 .14898682 .63500979 .22399903 .64401248 .24899292 .64401248 .28199769 .64401248 .34799195 .6259918 .36698915 .52693179 .3769989 .47088624 .3769989 .39482118 .3769989 .3317871 .3769989 .25672914 .3769989 .18867493 .3659973 .12461853 .35099793 .029556275 .2939911-.00047302247 .24899292-.00047302247Z"/>
<path id="font_3_1" d="M.19198609 .052993776C.19198609 .08198547 .16799927 .10598755 .13899231 .10598755 .10998535 .10598755 .085998538 .08198547 .085998538 .052993776 .085998538 .023986817 .10998535 0 .13899231 0 .16799927 0 .19198609 .023986817 .19198609 .052993776Z"/>
<path id="font_2_5" d="M.44898988 .20022583C.44898988 .3193512 .36698915 .41944886 .25898744 .41944886 .21099854 .41944886 .16799927 .40345765 .13198853 .36842347V.5637665C.1519928 .5577698 .18499756 .55078127 .21699524 .55078127 .33999635 .55078127 .4099884 .6417694 .4099884 .6547699 .4099884 .6607666 .40699769 .6657715 .3999939 .6657715 .39898683 .6657715 .39698792 .6657715 .3919983 .66278079 .37199403 .6537781 .32299806 .6337738 .2559967 .6337738 .21598816 .6337738 .16999817 .6407776 .12298584 .6617737 .114990238 .66477969 .11299133 .66477969 .11099243 .66477969 .100997928 .66477969 .100997928 .6567688 .100997928 .6407776V.34439088C.100997928 .32637025 .100997928 .31835938 .114990238 .31835938 .12199402 .31835938 .12399292 .32136537 .12799073 .32736207 .13899231 .3433838 .17599488 .39746095 .25698854 .39746095 .30899049 .39746095 .33399964 .35139466 .34199525 .33337403 .35798646 .29632569 .3600006 .25727845 .3600006 .20722962 .3600006 .17222595 .3600006 .11222839 .33599855 .07035828 .31199647 .031463624 .2749939 .0055389406 .22898865 .0055389406 .1559906 .0055389406 .09899902 .058380128 .08198547 .11723328 .084991458 .1162262 .08799744 .115234378 .09899902 .115234378 .13198853 .115234378 .14898682 .14022827 .14898682 .16423035 .14898682 .18823242 .13198853 .21322632 .09899902 .21322632 .084991458 .21322632 .049987794 .20622254 .049987794 .16023255 .049987794 .07434082 .11898804-.022460938 .23098755-.022460938 .34700013-.022460938 .44898988 .073349 .44898988 .20022583Z"/>
<path id="font_2_3" d="M.1269989 .07699585 .23298645 .18003845C.3889923 .31811524 .44898988 .3721466 .44898988 .47216798 .44898988 .5860901 .35899354 .6660156 .23699951 .6660156 .12399292 .6660156 .049987794 .57411196 .049987794 .48516847 .049987794 .4291687 .099990848 .4291687 .102996829 .4291687 .11999512 .4291687 .15499878 .44117738 .15499878 .48217774 .15499878 .5081787 .13699341 .5341797 .101989749 .5341797 .09399414 .5341797 .09199524 .5341797 .08898926 .5331726 .11199951 .59806826 .1659851 .63500979 .22399903 .63500979 .31498719 .63500979 .35798646 .5541382 .35798646 .47216798 .35798646 .39215089 .30799867 .31311036 .25299073 .25108338L.06098938 .036987306C.049987794 .025985718 .049987794 .023986817 .049987794 0H.42099L.44898988 .17404175H.42399598C.4189911 .14402771 .4119873 .1000061 .4019928 .084991458 .394989 .07699585 .32899476 .07699585 .30699159 .07699585H.1269989Z"/>
<path id="font_2_4" d="M.2899933 .35191346C.37199403 .37893678 .42999269 .4490509 .42999269 .52809146 .42999269 .6100464 .34199525 .6660156 .24598694 .6660156 .14498902 .6660156 .068984989 .60606387 .068984989 .53009036 .068984989 .49710084 .09098816 .47808839 .11999512 .47808839 .15098572 .47808839 .17098999 .50009158 .17098999 .5290985 .17098999 .57910159 .12399292 .57910159 .10899353 .57910159 .13999939 .62802127 .20599365 .64100649 .24198914 .64100649 .2829895 .64100649 .33799745 .6190338 .33799745 .5290985 .33799745 .51708987 .33599855 .45906068 .30999757 .4149933 .27999879 .36691285 .24598694 .36390687 .22099304 .36291505 .21299744 .36190797 .18899536 .35990907 .18199158 .35990907 .17399597 .35890199 .16699219 .35791017 .16699219 .3479004 .16699219 .33691407 .17399597 .33691407 .19099427 .33691407H.23498535C.31698609 .33691407 .35398866 .2686615 .35398866 .17037964 .35398866 .034469606 .2849884 .0055389406 .24099732 .0055389406 .19799805 .0055389406 .12298584 .022491456 .08799744 .08137512 .12298584 .07637024 .1539917 .09837341 .1539917 .1363678 .1539917 .17237854 .1269989 .19238281 .09799194 .19238281 .07398987 .19238281 .041992189 .17837525 .041992189 .1343689 .041992189 .043441774 .1349945-.022460938 .24398804-.022460938 .3659973-.022460938 .45700074 .06838989 .45700074 .17037964 .45700074 .252594 .3939972 .33088685 .2899933 .35191346Z"/>
<clipPath id="clip_4">
<path transform="matrix(1,0,0,-1.00009,6.8729937,131.00662)" d="M0 0H210.28592V125.24529H0Z"/>
</clipPath>
<path id="font_5_0" d="M0 0Z"/>
<path id="font_3_2" d="M.33399964 .30233766C.33999635 .32835389 .36299134 .42037965 .43299867 .42037965 .43798829 .42037965 .46199037 .42037965 .48298646 .40734864 .45498658 .402359 .43499757 .37734986 .43499757 .35334779 .43499757 .33735658 .44599916 .31835938 .47299195 .31835938 .49499513 .31835938 .5269928 .3363495 .5269928 .37635804 .5269928 .42837525 .46798707 .4423828 .43399049 .4423828 .37599183 .4423828 .34098817 .38935853 .32899476 .36634828 .3039856 .43237306 .25 .4423828 .22099304 .4423828 .116989139 .4423828 .05999756 .3133545 .05999756 .28834535 .05999756 .27833558 .069992069 .27833558 .07199097 .27833558 .07998657 .27833558 .08299255 .28033448 .084991458 .28933717 .11898804 .39535523 .18499756 .42037965 .21899414 .42037965 .23799134 .42037965 .272995 .4113617 .272995 .35334779 .272995 .32235719 .2559967 .25532533 .21899414 .11528015 .20298767 .053268434 .16799927 .011245728 .12399292 .011245728 .117996219 .011245728 .09498596 .011245728 .07398987 .024276734 .09899902 .029266358 .12098694 .05027771 .12098694 .07827759 .12098694 .105270389 .09899902 .11328125 .083999637 .11328125 .053985597 .11328125 .0289917 .08728027 .0289917 .055267335 .0289917 .009246826 .07899475-.0107421879 .12298584-.0107421879 .18899536-.0107421879 .22499085 .059280397 .22799683 .0652771 .23999024 .028274537 .27598573-.0107421879 .33599855-.0107421879 .43899537-.0107421879 .49598695 .118270877 .49598695 .14328003 .49598695 .1532898 .4869995 .1532898 .48399354 .1532898 .47499085 .1532898 .47299195 .14929199 .47099305 .14228821 .43798829 .03527832 .36999513 .011245728 .33799745 .011245728 .29899598 .011245728 .2829895 .043273927 .2829895 .07727051 .2829895 .09927368 .2889862 .121276859 .2999878 .16529846L.33399964 .30233766Z"/>
<path id="font_3_3" d="M.48599244 .38136292C.48999024 .39537049 .48999024 .39736939 .48999024 .40437318 .48999024 .42237855 .47599793 .43138124 .46099855 .43138124 .45098878 .43138124 .43499757 .42536927 .42599488 .41036988 .42399598 .405365 .41600038 .37435914 .4119873 .35635377 .40499879 .33035279 .397995 .30334474 .3919983 .27633668L.34700013 .09628296C.34298707 .08126831 .2999878 .011245728 .23399353 .011245728 .18299866 .011245728 .17199707 .055267335 .17199707 .0922699 .17199707 .1382904 .18899536 .20030213 .22299195 .28833009 .23899842 .3293457 .24299622 .3403473 .24299622 .36035157 .24299622 .405365 .21099854 .4423828 .16099549 .4423828 .06599426 .4423828 .0289917 .29733277 .0289917 .28833009 .0289917 .27833558 .038986207 .27833558 .040985109 .27833558 .050994874 .27833558 .051986696 .28033448 .056991579 .29634095 .083999637 .3903656 .12399292 .42037965 .1579895 .42037965 .1659851 .42037965 .18299866 .42037965 .18299866 .3883667 .18299866 .36335755 .17298889 .3373413 .1659851 .31834413 .12599182 .21231079 .10798645 .1552887 .10798645 .10827637 .10798645 .019256592 .17098999-.0107421879 .22999573-.0107421879 .2689972-.0107421879 .30299378 .0062561037 .33099366 .03425598 .31799317-.017745972 .30599977-.06674194 .2659912-.11973572 .23999024-.15385437 .20199585-.18309021 .1559906-.18309021 .14199829-.18309021 .09700012-.18005371 .07998657-.14074707 .09599304-.14074707 .10899353-.14074707 .12298584-.1287384 .1329956-.11973572 .14299011-.10673523 .14299011-.08773804 .14299011-.056747438 .115997318-.052734376 .10598755-.052734376 .08299255-.052734376 .049987794-.068740848 .049987794-.11773682 .049987794-.16796875 .09399414-.20507813 .1559906-.20507813 .25898744-.20507813 .3619995-.11373901 .3899994-.00074768069L.48599244 .38136292Z"/>
</defs>
<path transform="matrix(1,0,0,-1.00009,6.8729937,131.00662)" stroke-width=".3985" stroke-linecap="butt" stroke-miterlimit="10" stroke-linejoin="miter" fill="none" stroke="#bfbfbf" d="M0 0V125.24529M26.28574 0V125.24529M78.85721 0V125.24529M105.14296 0V125.24529M131.4287 0V125.24529M157.71443 0V125.24529M184.00019 0V125.24529M210.28592 0V125.24529"/>
<path transform="matrix(1,0,0,-1.00009,6.8729937,131.00662)" stroke-width=".3985" stroke-linecap="butt" stroke-miterlimit="10" stroke-linejoin="miter" fill="none" stroke="#bfbfbf" d="M0 75.14717H210.28592M0 125.24529H210.28592"/>
<path transform="matrix(1,0,0,-1.00009,6.8729937,131.00662)" stroke-width=".19925" stroke-linecap="butt" stroke-miterlimit="10" stroke-linejoin="miter" fill="none" stroke="#7f807f" d="M0 22.92293V27.17516M26.28574 22.92293V27.17516M78.85721 22.92293V27.17516M105.14296 22.92293V27.17516M131.4287 22.92293V27.17516M157.71443 22.92293V27.17516M184.00019 22.92293V27.17516M210.28592 22.92293V27.17516"/>
<path transform="matrix(1,0,0,-1.00009,6.8729937,131.00662)" stroke-width=".19925" stroke-linecap="butt" stroke-miterlimit="10" stroke-linejoin="miter" fill="none" stroke="#7f807f" d="M50.44543 75.14717H54.6975M50.44543 125.24529H54.6975"/>
<path transform="matrix(1,0,0,-1.00009,6.8729937,131.00662)" stroke-width=".3985" stroke-linecap="butt" stroke-miterlimit="10" stroke-linejoin="miter" fill="none" stroke="#000000" d="M0 25.04906H208.2934"/>
<path transform="matrix(1,0,0,-1.00009,215.16638,105.95531)" d="M1.99252 0-1.19551 1.59401 0 0-1.19551-1.59401"/>
<path transform="matrix(1,0,0,-1.00009,6.8729937,131.00662)" stroke-width=".3985" stroke-linecap="butt" stroke-miterlimit="10" stroke-linejoin="miter" fill="none" stroke="#000000" d="M52.57147 0V123.25276"/>
<path transform="matrix(0,-1.00009,-1,-0,59.44446,7.7427675)" d="M1.99252 0-1.19551 1.59401 0 0-1.19551-1.59401"/>
<use data-text="&#x2212;" xlink:href="#font_1_1" transform="matrix(10.9091,0,0,-10.910082,-.09700775,118.94854)"/>
<use data-text="1" xlink:href="#font_2_2" transform="matrix(10.9091,0,0,-10.910082,8.387993,118.94854)"/>
<use data-text="&#x2212;" xlink:href="#font_1_1" transform="matrix(10.9091,0,0,-10.910082,21.945992,118.94854)"/>
<use data-text="0" xlink:href="#font_2_1" transform="matrix(10.9091,0,0,-10.910082,30.430993,118.94854)"/>
<use data-text="." xlink:href="#font_3_1" transform="matrix(10.9091,0,0,-10.910082,35.885995,118.94854)"/>
<use data-text="5" xlink:href="#font_2_5" transform="matrix(10.9091,0,0,-10.910082,38.915994,118.94854)"/>
<use data-text="0" xlink:href="#font_2_1" transform="matrix(10.9091,0,0,-10.910082,78.759998,118.94854)"/>
<use data-text="." xlink:href="#font_3_1" transform="matrix(10.9091,0,0,-10.910082,84.215,118.94854)"/>
<use data-text="5" xlink:href="#font_2_5" transform="matrix(10.9091,0,0,-10.910082,87.244998,118.94854)"/>
<use data-text="1" xlink:href="#font_2_2" transform="matrix(10.9091,0,0,-10.910082,109.288997,118.94854)"/>
<use data-text="1" xlink:href="#font_2_2" transform="matrix(10.9091,0,0,-10.910082,131.332,118.94854)"/>
<use data-text="." xlink:href="#font_3_1" transform="matrix(10.9091,0,0,-10.910082,136.78699,118.94854)"/>
<use data-text="5" xlink:href="#font_2_5" transform="matrix(10.9091,0,0,-10.910082,139.81699,118.94854)"/>
<use data-text="2" xlink:href="#font_2_3" transform="matrix(10.9091,0,0,-10.910082,161.85999,118.94854)"/>
<use data-text="2" xlink:href="#font_2_3" transform="matrix(10.9091,0,0,-10.910082,183.90299,118.94854)"/>
<use data-text="." xlink:href="#font_3_1" transform="matrix(10.9091,0,0,-10.910082,189.358,118.94854)"/>
<use data-text="5" xlink:href="#font_2_5" transform="matrix(10.9091,0,0,-10.910082,192.388,118.94854)"/>
<use data-text="3" xlink:href="#font_2_4" transform="matrix(10.9091,0,0,-10.910082,214.432,118.94854)"/>
<use data-text="1" xlink:href="#font_2_2" transform="matrix(10.9091,0,0,-10.910082,48.02899,59.36817)"/>
<use data-text="2" xlink:href="#font_2_3" transform="matrix(10.9091,0,0,-10.910082,48.02899,9.265663)"/>
<g clip-path="url(#clip_4)">
<path transform="matrix(1,0,0,-1.00009,6.8729937,131.00662)" stroke-width=".79701" stroke-linecap="butt" stroke-miterlimit="10" stroke-linejoin="miter" fill="none" stroke="#0000ff" d="M26.28574 103.32735C26.28574 103.32735 27.82428 92.75386 28.41518 89.03325 29.00609 85.31264 29.95372 79.7564 30.54465 76.5117 31.13556 73.26701 32.08319 68.44794 32.6741 65.6477 33.26503 62.84746 34.21266 58.71584 34.80357 56.32951 35.39447 53.94318 36.3421 50.45073 36.93301 48.44861 37.52393 46.44649 38.47157 43.5463 39.0625 41.89964 39.65341 40.25298 40.60106 37.89966 41.19196 36.58058 41.78285 35.26152 42.7305 33.4111 43.32141 32.39264 43.91231 31.37419 44.85995 29.9841 45.45087 29.24017 46.04178 28.49625 46.98941 27.52542 47.58034 27.03085 48.17125 26.53629 49.1189 25.94508 49.7098 25.67558 50.30069 25.40608 51.24834 25.15625 51.83923 25.08846 52.43015 25.02066 53.37779 25.07545 53.9687 25.18686 54.55962 25.29826 55.50725 25.62234 56.09816 25.89137 56.68909 26.16042 57.63672 26.71986 58.22763 27.12584 58.81854 27.53181 59.76617 28.29424 60.35709 28.81735 60.94801 29.34047 61.89565 30.27478 62.48656 30.89616 63.07747 31.51753 64.02512 32.59421 64.61601 33.29585 65.20692 33.9975 66.15456 35.18837 66.74547 35.9532 67.33636 36.71803 68.28401 37.99643 68.87492 38.80823 69.46584 39.62003 70.41347 40.9607 71.0044 41.80417 71.5953 42.64766 72.54294 44.02678 73.13385 44.88754 73.72476 45.7483 74.67241 47.1435 75.26332 48.00806 75.85422 48.8726 76.80185 50.26294 77.39276 51.11867 77.98367 51.9744 78.93132 53.34044 79.52225 54.17564 80.11316 55.01086 81.06079 56.33449 81.65169 57.13835 82.24258 57.94221 83.19023 59.20682 83.78116 59.96945 84.37207 60.73209 85.3197 61.92255 85.91061 62.63492 86.50153 63.3473 87.44916 64.44984 88.04007 65.10387 88.631 65.75789 89.57864 66.76024 90.16954 67.34868 90.76044 67.93712 91.70808 68.82846 92.29898 69.345 92.8899 69.86156 93.83754 70.63243 94.42845 71.07167 95.01936 71.51093 95.967 72.1534 96.5579 72.51082 97.14883 72.86823 98.09647 73.37575 98.68738 73.6477 99.27829 73.91968 100.22592 74.28717 100.81683 74.47096 101.40776 74.65475 102.35538 74.87859 102.9463 74.97238 103.53722 75.06618 104.48486 75.14415 105.07576 75.14702 105.66666 75.14989 106.6143 75.0812 107.20522 74.99313 107.79611 74.90504 108.74376 74.69029 109.33467 74.51215 109.92558 74.33398 110.87321 73.9755 111.46414 73.70903 112.05505 73.44258 113.00269 72.94373 113.5936 72.59158 114.18451 72.23944 115.13216 71.60522 115.72307 71.17102 116.31396 70.73682 117.26161 69.9739 117.85251 69.46211 118.4434 68.95033 119.39105 68.06647 119.98196 67.48238 120.57289 66.89828 121.52052 65.90248 122.11143 65.25237 122.70235 64.60226 123.64998 63.50569 124.24089 62.79678 124.83182 62.08786 125.77945 60.90271 126.37036 60.14297 126.96127 59.38324 127.9089 58.12271 128.49982 57.32112 129.09075 56.51953 130.03839 55.19917 130.62929 54.36566 131.22019 53.53215 132.16783 52.16844 132.75873 51.31369 133.34964 50.45895 134.29729 49.06961 134.8882 48.20522 135.47911 47.34084 136.42675 45.94519 137.01766 45.08379 137.60858 44.22238 138.5562 42.84172 139.14713 41.99673 139.73804 41.15175 140.68567 39.80783 141.27658 38.99362 141.8675 38.1794 142.81513 36.89658 143.40605 36.12834 143.99697 35.3601 144.94461 34.16292 145.5355 33.45671 146.1264 32.7505 147.07405 31.66547 147.66497 31.03844 148.25586 30.41139 149.2035 29.46727 149.79442 28.93741 150.38533 28.40756 151.33296 27.63353 151.92389 27.21959 152.5148 26.80565 153.46244 26.23225 154.05335 25.95396 154.64426 25.67567 155.5919 25.33577 156.1828 25.21387 156.77371 25.09196 157.72136 25.01944 158.31226 25.07535 158.90316 25.13127 159.8508 25.36078 160.44171 25.61687 161.03264 25.87294 161.98027 26.4414 162.57118 26.921 163.1621 27.40062 164.10973 28.34634 164.70064 29.07362 165.29157 29.8009 166.2392 31.16223 166.83011 32.16272 167.42102 33.16321 168.36865 34.98491 168.95957 36.28455 169.55049 37.58418 170.49813 39.90479 171.08904 41.52966 171.67993 43.15454 172.62758 46.01704 173.21848 47.99559 173.80939 49.97412 174.75702 53.42833 175.34795 55.78964 175.93886 58.15096 176.88649 62.24075 177.4774 65.01427 178.06832 67.78777 179.01595 72.5634 179.60688 75.77919 180.19779 78.995 181.14543 84.50221 181.73633 88.19151 182.32723 91.88083 183.27487 98.1735 183.86579 102.36923 184.45668 106.56497 185.40433 113.696 185.99524 118.43153 186.58615 123.16707 187.53379 131.19069 188.12471 136.49977 188.71562 141.80886 189.66326 150.77864 190.25417 156.69573 190.84508 162.61281 191.79271 172.58434 192.38362 179.14601 192.97455 185.70767 194.51309 203.98775 194.51309 203.98775"/>
<use data-text="&#xffff;" xlink:href="#font_5_0" transform="matrix(9.9626,0,0,-9.963496,44.450994,109.79071)"/>
<use data-text="&#xffff;" xlink:href="#font_5_0" transform="matrix(9.9626,0,0,-9.963496,47.24052,109.79071)"/>
<use data-text="&#xffff;" xlink:href="#font_5_0" transform="matrix(9.9626,0,0,-9.963496,50.03005,109.79071)"/>
<use data-text="&#xffff;" xlink:href="#font_5_0" transform="matrix(9.9626,0,0,-9.963496,52.819578,109.79071)"/>
<use data-text="&#xffff;" xlink:href="#font_5_0" transform="matrix(9.9626,0,0,-9.963496,109.22599,47.007066)"/>
<use data-text="&#xffff;" xlink:href="#font_5_0" transform="matrix(9.9626,0,0,-9.963496,112.01552,47.007066)"/>
<use data-text="&#xffff;" xlink:href="#font_5_0" transform="matrix(9.9626,0,0,-9.963496,168.423,109.79071)"/>
<use data-text="&#xffff;" xlink:href="#font_5_0" transform="matrix(9.9626,0,0,-9.963496,171.21253,109.79071)"/>
<use data-text="&#xffff;" xlink:href="#font_5_0" transform="matrix(9.9626,0,0,-9.963496,174.00205,109.79071)"/>
<use data-text="&#xffff;" xlink:href="#font_5_0" transform="matrix(9.9626,0,0,-9.963496,176.79158,109.79071)"/>
</g>
<path transform="matrix(1,0,0,-1.00009,6.8729937,131.00662)" d="M54.96254 25.04906C54.96254 26.3696 53.89203 27.44011 52.57147 27.44011 51.25093 27.44011 50.18042 26.3696 50.18042 25.04906 50.18042 23.7285 51.25093 22.65799 52.57147 22.65799 53.89203 22.65799 54.96254 23.7285 54.96254 25.04906ZM52.57147 25.04906" fill="#0000ff"/>
<path transform="matrix(1,0,0,-1.00009,6.8729937,131.00662)" stroke-width=".3985" stroke-linecap="butt" stroke-miterlimit="10" stroke-linejoin="miter" fill="none" stroke="#0000ff" d="M54.96254 25.04906C54.96254 26.3696 53.89203 27.44011 52.57147 27.44011 51.25093 27.44011 50.18042 26.3696 50.18042 25.04906 50.18042 23.7285 51.25093 22.65799 52.57147 22.65799 53.89203 22.65799 54.96254 23.7285 54.96254 25.04906ZM52.57147 25.04906"/>
<path transform="matrix(1,0,0,-1.00009,6.8729937,131.00662)" stroke-width=".3985" stroke-linecap="butt" stroke-miterlimit="10" stroke-linejoin="miter" fill="none" stroke="#0000ff" d=""/>
<path transform="matrix(1,0,0,-1.00009,6.8729937,131.00662)" d="M107.53401 75.14717C107.53401 76.46773 106.4635 77.53822 105.14296 77.53822 103.8224 77.53822 102.75189 76.46773 102.75189 75.14717 102.75189 73.82661 103.8224 72.75612 105.14296 72.75612 106.4635 72.75612 107.53401 73.82661 107.53401 75.14717ZM105.14296 75.14717" fill="#0000ff"/>
<path transform="matrix(1,0,0,-1.00009,6.8729937,131.00662)" stroke-width=".3985" stroke-linecap="butt" stroke-miterlimit="10" stroke-linejoin="miter" fill="none" stroke="#0000ff" d="M107.53401 75.14717C107.53401 76.46773 106.4635 77.53822 105.14296 77.53822 103.8224 77.53822 102.75189 76.46773 102.75189 75.14717 102.75189 73.82661 103.8224 72.75612 105.14296 72.75612 106.4635 72.75612 107.53401 73.82661 107.53401 75.14717ZM105.14296 75.14717"/>
<path transform="matrix(1,0,0,-1.00009,6.8729937,131.00662)" stroke-width=".3985" stroke-linecap="butt" stroke-miterlimit="10" stroke-linejoin="miter" fill="none" stroke="#0000ff" d=""/>
<path transform="matrix(1,0,0,-1.00009,6.8729937,131.00662)" d="M160.1055 25.04906C160.1055 26.3696 159.03499 27.44011 157.71443 27.44011 156.39389 27.44011 155.32338 26.3696 155.32338 25.04906 155.32338 23.7285 156.39389 22.65799 157.71443 22.65799 159.03499 22.65799 160.1055 23.7285 160.1055 25.04906ZM157.71443 25.04906" fill="#0000ff"/>
<path transform="matrix(1,0,0,-1.00009,6.8729937,131.00662)" stroke-width=".3985" stroke-linecap="butt" stroke-miterlimit="10" stroke-linejoin="miter" fill="none" stroke="#0000ff" d="M160.1055 25.04906C160.1055 26.3696 159.03499 27.44011 157.71443 27.44011 156.39389 27.44011 155.32338 26.3696 155.32338 25.04906 155.32338 23.7285 156.39389 22.65799 157.71443 22.65799 159.03499 22.65799 160.1055 23.7285 160.1055 25.04906ZM157.71443 25.04906"/>
<path transform="matrix(1,0,0,-1.00009,6.8729937,131.00662)" stroke-width=".3985" stroke-linecap="butt" stroke-miterlimit="10" stroke-linejoin="miter" fill="none" stroke="#0000ff" d=""/>
<use data-text="x" xlink:href="#font_3_2" transform="matrix(10.9091,0,0,-10.910082,207.08899,102.120029)"/>
<use data-text="y" xlink:href="#font_3_3" transform="matrix(10.9091,0,0,-10.910082,63.279996,14.283119)"/>
</svg>
